<?xml version="1.0" encoding="UTF-8" standalone="no"?>
<!-- Created with Inkscape (http://www.inkscape.org/) -->

<svg
   xmlns:dc="http://purl.org/dc/elements/1.1/"
   xmlns:cc="http://creativecommons.org/ns#"
   xmlns:rdf="http://www.w3.org/1999/02/22-rdf-syntax-ns#"
   xmlns:svg="http://www.w3.org/2000/svg"
   xmlns="http://www.w3.org/2000/svg"
   xmlns:sodipodi="http://sodipodi.sourceforge.net/DTD/sodipodi-0.dtd"
   xmlns:inkscape="http://www.inkscape.org/namespaces/inkscape"
   width="180mm"
   height="100mm"
   viewBox="0 0 180 100"
   version="1.1"
   id="svg8"
   inkscape:version="0.92.5 (2060ec1f9f, 2020-04-08)"
   sodipodi:docname="hummingbird.svg">
  <defs
     id="defs2">
    <meshgradient
       inkscape:collect="always"
       id="meshgradient895"
       gradientUnits="userSpaceOnUse"
       x="160.00288"
       y="91.040878">
      <meshrow
         id="meshrow8385">
        <meshpatch
           id="meshpatch8387">
          <stop
             path="c 0.788727,-0.751094  -1.1187,-1.99641  -0.329676,-1.24531"
             style="stop-color:#ffffff;stop-opacity:1"
             id="stop8389" />
          <stop
             path="c 0.788753,0.751297  -0.170077,1.90481  -0.958928,2.65599"
             style="stop-color:#0000ca;stop-opacity:1"
             id="stop8391" />
          <stop
             path="c -0.788849,0.751176  0.0837102,1.22477  -0.70506,0.473514"
             style="stop-color:#ffffff;stop-opacity:1"
             id="stop8393" />
          <stop
             path="c 1.01179,-0.464642  1.20466,-1.13297  1.99366,-1.8842"
             style="stop-color:#0000ca;stop-opacity:1"
             id="stop8395" />
        </meshpatch>
      </meshrow>
    </meshgradient>
  </defs>
  <sodipodi:namedview
     id="base"
     pagecolor="#ffffff"
     bordercolor="#666666"
     borderopacity="1.0"
     inkscape:pageopacity="0.0"
     inkscape:pageshadow="2"
     inkscape:zoom="1.4313691"
     inkscape:cx="327.60485"
     inkscape:cy="495.9774"
     inkscape:document-units="mm"
     inkscape:current-layer="layer1"
     showgrid="false"
     showguides="false"
     inkscape:window-width="3670"
     inkscape:window-height="2131"
     inkscape:window-x="0"
     inkscape:window-y="0"
     inkscape:window-maximized="1" />
  <metadata
     id="metadata5">
    <rdf:RDF>
      <cc:Work
         rdf:about="">
        <dc:format>image/svg+xml</dc:format>
        <dc:type
           rdf:resource="http://purl.org/dc/dcmitype/StillImage" />
        <dc:title></dc:title>
      </cc:Work>
    </rdf:RDF>
  </metadata>
  <g
     inkscape:label="Layer 1"
     inkscape:groupmode="layer"
     id="layer1"
     transform="translate(0,-197)">
    <path
       style="fill:#ebe153;fill-opacity:1;stroke-width:0.53031492"
       d="m 155.14355,221.35624 c 1.26195,-0.89064 3.06632,-1.97666 3.18961,-2.94616 -2.16804,-2.14815 -8.78472,-1.05474 -10.74073,0.94762 -2.78116,1.81101 -11.2867,9.92407 -20.02079,18.62159 -3.85012,3.834 -8.39051,7.86567 -10.09034,8.95914 -1.69983,1.09346 -4.3438,2.79152 -5.87509,3.77342 -1.53128,0.98189 -2.78381,2.06024 -2.78381,2.39623 0,0.96315 2.54674,5.05792 3.33364,5.35988 1.5523,0.59567 9.27227,-4.97699 14.7867,-10.67377 8.94683,-9.2427 16.95451,-16.94151 20.06234,-19.28926 1.60421,-1.21186 4.23276,-3.28214 5.75683,-4.74154 0.82414,-0.8361 1.68314,-1.54634 2.38164,-2.40715 z"
       id="path8421"
       inkscape:connector-curvature="0"
       sodipodi:nodetypes="cccsccscsccc" />
    <path
       style="fill:#648dda;fill-opacity:1;stroke-width:0.53031492"
       d="m 166.7739,216.69227 c -2.26816,0.12443 -4.64023,0.53811 -5.9309,1.17668 -2.03968,0.74101 -3.51625,2.35917 -5.17746,3.77186 6.23172,-6.6866 -0.67446,0.80898 -1.34669,1.4087 -4.23224,3.5234 -11.85321,11.2841 -18.18545,18.51825 -1.75004,1.99929 -4.09701,4.49809 -5.2157,5.55315 -2.27665,2.14716 -8.98823,6.99044 -12.75737,9.20615 -1.3608,0.79996 -2.59898,1.7793 -2.75125,2.1761 -0.15227,0.39681 0.69739,2.18826 1.88826,3.98115 1.19087,1.79289 2.52355,3.25975 2.96106,3.25975 2.5835,0 12.35837,-8.33975 19.85718,-16.9416 8.44043,-9.68198 15.55154,-16.73453 22.85649,-22.66787 9.72196,-7.8965 10.11892,-8.28346 9.11004,-8.88214 -0.87582,-0.51973 -3.04005,-0.6846 -5.30821,-0.56018 z"
       id="path8419"
       inkscape:connector-curvature="0"
       sodipodi:nodetypes="cccccscccssccc" />
    <path
       style="fill:#d1322f;fill-opacity:1;stroke-width:0.53031492"
       d="m 149.79355,206.90114 c -2.18124,0.0118 -4.57294,0.29681 -6.45439,0.85059 -11.25707,3.3134 -16.70406,5.70172 -31.50144,13.81156 -5.48755,3.00751 -10.09476,5.46789 -10.23813,5.46789 -0.14336,0 -2.461035,1.29527 -5.150075,2.87786 -5.946203,3.49952 -9.918673,5.12003 -13.082405,5.33766 -2.161744,0.14871 -2.562992,-0.022 -4.270023,-1.81643 -1.036309,-1.08939 -2.902474,-3.93817 -4.147034,-6.33036 -2.36374,-4.54341 -5.085633,-7.73918 -7.311697,-8.58553 -1.899983,-0.72237 -7.448851,-1.72369 -11.407058,0.24288 -1.017592,0.50558 -3.456368,1.75387 -5.303035,3.04788 -4.565354,3.19907 -5.717768,3.6592 -11.842687,4.72994 -8.605263,1.50435 -18.934738,3.48957 -20.676102,4.22175 -9.6240984,2.09224 -1.155417,1.28253 3.8414,1.62668 5.957409,0.35473 10.137135,-0.40174 15.64753,-0.67779 6.840307,-0.31853 7.819827,-0.98753 9.289002,-0.22779 2.565821,1.32684 5.395489,5.28137 8.803082,12.3021 6.333879,13.04981 8.391961,16.59969 12.423531,21.43383 4.636998,5.56009 11.467068,10.44678 16.544208,11.83648 4.93735,1.35146 4.87839,1.84457 8.428426,1.72135 2.936788,-0.22306 5.186749,-1.15748 9.867097,-1.86707 1.45837,-0.22115 3.24835,-0.22355 3.97754,-0.005 0.72918,0.21839 2.75769,0.70717 4.50773,1.08572 3.98645,0.86232 11.86332,3.50568 19.79828,6.64404 3.35697,1.32772 7.07706,2.60535 8.26668,2.83962 v 5.3e-4 c 2.80181,0.55174 3.18818,0.44007 3.39669,-0.98082 0.20157,-1.37356 -0.55544,-2.41328 -2.89595,-3.97702 -4.27996,-2.85952 -17.0976,-11.69594 -18.80557,-12.96458 -6.24287,-4.6371 -8.01579,-6.14386 -10.47481,-8.90282 -2.91698,-3.27278 -5.60906,-7.86721 -5.21364,-8.89765 0.13217,-0.34443 1.99749,-1.54291 4.14497,-2.6634 6.51802,-3.40088 9.55602,-5.63136 13.71544,-10.06967 11.80976,-12.60158 18.83728,-19.04691 30.41055,-27.89132 1.33583,-1.02086 2.43784,-2.02891 2.44894,-2.24017 0.011,-0.21127 -0.68407,-0.74821 -1.54461,-1.19321 -1.04027,-0.53794 -3.01121,-0.79937 -5.19244,-0.78755 z"
       id="path830"
       inkscape:connector-curvature="0"
       sodipodi:nodetypes="cssscccscsssccccsscccccccccscscccccccc" />
  </g>
</svg>
